{
    "asset": {
        "generator": "FBX2glTF",
        "version": "2.0"
    },
    "scene": 0,
    "buffers": [
        {
            "byteLength": 751884,
            "uri": "buffer.bin"
        }
    ],
    "bufferViews": [
        {
            "buffer": 0,
            "byteLength": 29394,
            "byteOffset": 0,
            "target": 34963
        },
        {
            "buffer": 0,
            "byteLength": 120084,
            "byteOffset": 29396,
            "target": 34962
        },
        {
            "buffer": 0,
            "byteLength": 120084,
            "byteOffset": 149480,
            "target": 34962
        },
        {
            "buffer": 0,
            "byteLength": 160112,
            "byteOffset": 269564,
            "target": 34962
        },
        {
            "buffer": 0,
            "byteLength": 80056,
            "byteOffset": 429676,
            "target": 34962
        },
        {
            "buffer": 0,
            "byteLength": 80056,
            "byteOffset": 509732,
            "target": 34962
        },
        {
            "buffer": 0,
            "byteLength": 160112,
            "byteOffset": 589788,
            "target": 34962
        },
        {
            "buffer": 0,
            "byteLength": 1984,
            "byteOffset": 749900
        }
    ],
    "scenes": [
        {
            "name": "Root Scene",
            "nodes": [
                0
            ]
        }
    ],
    "accessors": [
        {
            "componentType": 5123,
            "type": "SCALAR",
            "count": 14697,
            "bufferView": 0,
            "byteOffset": 0
        },
        {
            "componentType": 5126,
            "type": "VEC3",
            "count": 10007,
            "bufferView": 1,
            "byteOffset": 0,
            "min": [
                -0.000553092919290066,
                -0.000530695891939104,
                -0.000276935083093122
            ],
            "max": [
                0.000225880139623769,
                0.000668601947836578,
                0.00175933830905706
            ]
        },
        {
            "componentType": 5126,
            "type": "VEC3",
            "count": 10007,
            "bufferView": 2,
            "byteOffset": 0
        },
        {
            "componentType": 5126,
            "type": "VEC4",
            "count": 10007,
            "bufferView": 3,
            "byteOffset": 0
        },
        {
            "componentType": 5126,
            "type": "VEC2",
            "count": 10007,
            "bufferView": 4,
            "byteOffset": 0
        },
        {
            "componentType": 5123,
            "type": "VEC4",
            "count": 10007,
            "bufferView": 5,
            "byteOffset": 0
        },
        {
            "componentType": 5126,
            "type": "VEC4",
            "count": 10007,
            "bufferView": 6,
            "byteOffset": 0
        },
        {
            "componentType": 5126,
            "type": "MAT4",
            "count": 31,
            "bufferView": 7,
            "byteOffset": 0
        }
    ],
    "images": [
        {
            "name": "vr_glove_normal.png",
            "uri": "vr_glove_normal.png"
        },
        {
            "name": "vr_glove_color_red.jpg",
            "uri": "vr_glove_color_red.jpg"
        }
    ],
    "samplers": [
        {}
    ],
    "textures": [
        {
            "name": "file2",
            "sampler": 0,
            "source": 0
        },
        {
            "name": "file3",
            "sampler": 0,
            "source": 1
        }
    ],
    "materials": [
        {
            "name": "blinn2",
            "alphaMode": "OPAQUE",
            "extras": {
                "fromFBX": {
                    "shadingModel": "Phong",
                    "isTruePBR": false
                }
            },
            "normalTexture": {
                "index": 0,
                "texCoord": 0
            },
            "pbrMetallicRoughness": {
                "baseColorTexture": {
                    "index": 1,
                    "texCoord": 0
                },
                "baseColorFactor": [
                    0.800000011920929,
                    0.800000011920929,
                    0.800000011920929,
                    1.0
                ],
                "metallicFactor": 0.400000005960464,
                "roughnessFactor": 0.490532398223877
            }
        }
    ],
    "meshes": [
        {
            "name": "vr_glove_left_slim",
            "primitives": [
                {
                    "material": 0,
                    "mode": 4,
                    "attributes": {
                        "JOINTS_0": 5,
                        "NORMAL": 2,
                        "POSITION": 1,
                        "TANGENT": 3,
                        "TEXCOORD_0": 4,
                        "WEIGHTS_0": 6
                    },
                    "indices": 0
                }
            ]
        }
    ],
    "skins": [
        {
            "joints": [
                1,
                2,
                3,
                4,
                5,
                6,
                7,
                8,
                9,
                10,
                11,
                12,
                13,
                14,
                15,
                16,
                17,
                18,
                19,
                20,
                21,
                22,
                23,
                24,
                25,
                26,
                27,
                28,
                29,
                30,
                31
            ],
            "inverseBindMatrices": 7,
            "skeleton": 1
        }
    ],
    "nodes": [
        {
            "name": "RootNode",
            "translation": [
                0.0,
                0.0,
                0.0
            ],
            "rotation": [
                0.0,
                0.0,
                0.0,
                1.0
            ],
            "scale": [
                1.0,
                1.0,
                1.0
            ],
            "children": [
                1,
                32
            ]
        },
        {
            "name": "Root",
            "translation": [
                0.0,
                0.0,
                0.0
            ],
            "rotation": [
                -6.12323426292584e-17,
                -3.74939939305299e-33,
                6.12323426292584e-17,
                1.0
            ],
            "scale": [
                100.0,
                100.0,
                100.0
            ],
            "children": [
                2,
                27,
                28,
                29,
                30,
                31
            ]
        },
        {
            "name": "wrist_l",
            "translation": [
                1.59787441589287e-06,
                -3.19243753210685e-07,
                -6.25709071755409e-06
            ],
            "rotation": [
                -0.0,
                -0.0,
                -0.0,
                1.0
            ],
            "scale": [
                1.0,
                1.0,
                1.0
            ],
            "children": [
                3,
                7,
                12,
                17,
                22
            ]
        },
        {
            "name": "finger_thumb_0_l",
            "translation": [
                -0.000179138005478308,
                0.000291780364932492,
                0.000252983183600008
            ],
            "rotation": [
                0.541194438934326,
                0.182029232382774,
                0.773035764694214,
                0.276386797428131
            ],
            "scale": [
                1.0,
                1.0,
                1.0
            ],
            "children": [
                4
            ]
        },
        {
            "name": "finger_thumb_1_l",
            "translation": [
                0.000404061283916235,
                -6.93889374881086e-20,
                8.67361686289615e-20
            ],
            "rotation": [
                6.09803755651228e-05,
                -0.00137185282073915,
                0.246377468109131,
                0.969172954559326
            ],
            "scale": [
                1.0,
                1.0,
                1.0
            ],
            "children": [
                5
            ]
        },
        {
            "name": "finger_thumb_2_l",
            "translation": [
                0.000325168191920966,
                -4.16333624928652e-19,
                -1.04083406232163e-19
            ],
            "rotation": [
                9.75727452896535e-05,
                0.00140282686334103,
                0.153335124254227,
                0.988173246383667
            ],
            "scale": [
                1.0,
                1.0,
                1.0
            ],
            "children": [
                6
            ]
        },
        {
            "name": "finger_thumb_l_end",
            "translation": [
                0.000304640008835122,
                2.77555749952435e-19,
                -1.73472337257923e-19
            ],
            "rotation": [
                1.17961196366423e-16,
                1.66533453693773e-16,
                1.66533453693773e-16,
                1.0
            ],
            "scale": [
                1.0,
                1.0,
                1.0
            ]
        },
        {
            "name": "finger_index_meta_l",
            "translation": [
                -1.55724501382792e-05,
                0.00021073229436297,
                0.000147869723150507
            ],
            "rotation": [
                0.53105640411377,
                -0.351434201002121,
                0.539577722549438,
                0.550753116607666
            ],
            "scale": [
                1.0,
                1.0,
                1.0
            ],
            "children": [
                8
            ]
        },
        {
            "name": "finger_index_0_l",
            "translation": [
                0.000737975467927754,
                -7.76288738956009e-19,
                -6.93889349031692e-19
            ],
            "rotation": [
                0.00162347115110606,
                -0.0528869554400444,
                0.241403847932816,
                0.968981146812439
            ],
            "scale": [
                1.0,
                1.0,
                1.0
            ],
            "children": [
                9
            ]
        },
        {
            "name": "finger_index_1_l",
            "translation": [
                0.000432865577749908,
                3.46944674515846e-19,
                -1.38777874976217e-19
            ],
            "rotation": [
                -8.5926367319189e-05,
                0.00504146795719862,
                0.184762090444565,
                0.982770323753357
            ],
            "scale": [
                1.0,
                1.0,
                1.0
            ],
            "children": [
                10
            ]
        },
        {
            "name": "finger_index_2_l",
            "translation": [
                0.000282752036582679,
                4.16333624928652e-19,
                -6.93889374881086e-20
            ],
            "rotation": [
                3.13613600155804e-05,
                -0.0011659226147458,
                0.0764576345682144,
                0.997072160243988
            ],
            "scale": [
                1.0,
                1.0,
                1.0
            ],
            "children": [
                11
            ]
        },
        {
            "name": "finger_index_l_end",
            "translation": [
                0.000228215401875786,
                2.77555749952435e-19,
                -2.77555749952435e-19
            ],
            "rotation": [
                -2.08166817117217e-16,
                1.66533453693773e-16,
                1.38777878078145e-16,
                1.0
            ],
            "scale": [
                1.0,
                1.0,
                1.0
            ]
        },
        {
            "name": "finger_middle_meta_l",
            "translation": [
                2.17730485019274e-05,
                7.11954344296828e-05,
                0.000163188349688426
            ],
            "rotation": [
                0.561749756336212,
                -0.419737339019775,
                0.472987622022629,
                0.533423364162445
            ],
            "scale": [
                1.0,
                1.0,
                1.0
            ],
            "children": [
                13
            ]
        },
        {
            "name": "finger_middle_0_l",
            "translation": [
                0.000708855397533625,
                1.0842021724855e-19,
                -4.94396184449535e-19
            ],
            "rotation": [
                -3.66499086057437e-15,
                -0.00018549247761257,
                0.229162603616714,
                0.973388135433197
            ],
            "scale": [
                1.0,
                1.0,
                1.0
            ],
            "children": [
                14
            ]
        },
        {
            "name": "finger_middle_1_l",
            "translation": [
                0.000431085412856191,
                1.38777874976217e-19,
                2.60208505886885e-19
            ],
            "rotation": [
                9.32806942728348e-05,
                -0.00368820875883102,
                0.157395571470261,
                0.987528741359711
            ],
            "scale": [
                1.0,
                1.0,
                1.0
            ],
            "children": [
                15
            ]
        },
        {
            "name": "finger_middle_2_l",
            "translation": [
                0.000332659168634564,
                -1.38777874976217e-19,
                4.33680843144808e-20
            ],
            "rotation": [
                -0.000107397288957145,
                0.00412536365911365,
                0.141276553273201,
                0.989961564540863
            ],
            "scale": [
                1.0,
                1.0,
                1.0
            ],
            "children": [
                16
            ]
        },
        {
            "name": "finger_middle_l_end",
            "translation": [
                0.000258922867942601,
                -6.93889349031692e-19,
                3.46944687440543e-20
            ],
            "rotation": [
                1.66533453693773e-16,
                1.06685493772574e-16,
                -1.66533453693773e-16,
                1.0
            ],
            "scale": [
                1.0,
                1.0,
                1.0
            ]
        },
        {
            "name": "finger_ring_meta_l",
            "translation": [
                5.13422537551378e-06,
                -6.54512623441406e-05,
                0.000163476608577184
            ],
            "rotation": [
                0.550143480300903,
                -0.495547860860825,
                0.429887890815735,
                0.516692221164703
            ],
            "scale": [
                1.0,
                1.0,
                1.0
            ],
            "children": [
                18
            ]
        },
        {
            "name": "finger_ring_0_l",
            "translation": [
                0.000659749784972519,
                -5.42101086242752e-20,
                -2.34187652713257e-19
            ],
            "rotation": [
                -0.000901304534636438,
                -0.0409569293260574,
                0.220369324088097,
                0.974555850028992
            ],
            "scale": [
                1.0,
                1.0,
                1.0
            ],
            "children": [
                19
            ]
        },
        {
            "name": "finger_ring_1_l",
            "translation": [
                0.000403312355047092,
                6.93889374881086e-20,
                2.77555749952435e-19
            ],
            "rotation": [
                -7.31370819266886e-05,
                0.00253143906593323,
                0.133829861879349,
                0.991001069545746
            ],
            "scale": [
                1.0,
                1.0,
                1.0
            ],
            "children": [
                20
            ]
        },
        {
            "name": "finger_ring_2_l",
            "translation": [
                0.000284887879388407,
                -1.38777874976217e-19,
                3.1225021223414e-19
            ],
            "rotation": [
                0.000198658628505655,
                -0.00426306808367372,
                0.135354921221733,
                0.990787982940674
            ],
            "scale": [
                1.0,
                1.0,
                1.0
            ],
            "children": [
                21
            ]
        },
        {
            "name": "finger_ring_l_end",
            "translation": [
                0.000224301431444474,
                4.16333624928652e-19,
                -1.04083406232163e-19
            ],
            "rotation": [
                -4.16333634234434e-17,
                2.0122792321331e-16,
                -2.22044604925031e-16,
                1.0
            ],
            "scale": [
                1.0,
                1.0,
                1.0
            ]
        },
        {
            "name": "finger_pinky_meta_l",
            "translation": [
                -2.47815733018797e-05,
                -0.00018981374159921,
                0.000152136402903125
            ],
            "rotation": [
                -0.515326857566833,
                0.615016102790833,
                -0.346746355295181,
                -0.485757559537888
            ],
            "scale": [
                1.0,
                1.0,
                1.0
            ],
            "children": [
                23
            ]
        },
        {
            "name": "finger_pinky_0_l",
            "translation": [
                0.000628556474111974,
                2.01661605633267e-19,
                4.33680868994202e-19
            ],
            "rotation": [
                0.00394218927249312,
                0.0281640980392694,
                0.110307671129704,
                0.993490517139435
            ],
            "scale": [
                1.0,
                1.0,
                1.0
            ],
            "children": [
                24
            ]
        },
        {
            "name": "finger_pinky_1_l",
            "translation": [
                0.000298743310850114,
                -1.73472337257923e-19,
                7.97972761726204e-19
            ],
            "rotation": [
                0.00038264412432909,
                -0.011456030420959,
                0.132522940635681,
                0.991113662719727
            ],
            "scale": [
                1.0,
                1.0,
                1.0
            ],
            "children": [
                25
            ]
        },
        {
            "name": "finger_pinky_2_l",
            "translation": [
                0.000179785318323411,
                -6.93889374881086e-20,
                -3.81639162646946e-19
            ],
            "rotation": [
                -0.000538476509973407,
                0.0127024594694376,
                0.108581051230431,
                0.994006276130676
            ],
            "scale": [
                1.0,
                1.0,
                1.0
            ],
            "children": [
                26
            ]
        },
        {
            "name": "finger_pinky_l_end",
            "translation": [
                0.000180179195012897,
                -2.77555749952435e-19,
                1.04083406232163e-19
            ],
            "rotation": [
                8.32667268468867e-17,
                -2.77555756156289e-17,
                -1.11022302462516e-16,
                1.0
            ],
            "scale": [
                1.0,
                1.0,
                1.0
            ]
        },
        {
            "name": "finger_thumb_l_aux",
            "translation": [
                -0.000392808695323765,
                0.000600812258198857,
                0.000844918424263597
            ],
            "rotation": [
                0.569106698036194,
                -0.045037254691124,
                0.819588840007782,
                -0.0486143082380295
            ],
            "scale": [
                1.0,
                1.0,
                1.0
            ]
        },
        {
            "name": "finger_index_l_aux",
            "translation": [
                -0.000182328236405738,
                0.000372783571947366,
                0.00148955581244081
            ],
            "rotation": [
                0.31232550740242,
                -0.597228050231934,
                0.708419322967529,
                0.209555432200432
            ],
            "scale": [
                1.0,
                1.0,
                1.0
            ]
        },
        {
            "name": "finger_middle_l_aux",
            "translation": [
                -0.000125606951769441,
                7.87112949183211e-05,
                0.00154690281488001
            ],
            "rotation": [
                0.271171391010284,
                -0.647061228752136,
                0.677402794361115,
                0.221140787005424
            ],
            "scale": [
                1.0,
                1.0,
                1.0
            ]
        },
        {
            "name": "finger_ring_l_aux",
            "translation": [
                -0.000178692367626354,
                -0.000232377889915369,
                0.001422353903763
            ],
            "rotation": [
                -0.262351989746094,
                0.721628904342651,
                -0.595027327537537,
                -0.237414509057999
            ],
            "scale": [
                1.0,
                1.0,
                1.0
            ]
        },
        {
            "name": "finger_pinky_l_aux",
            "translation": [
                -0.000160080468049273,
                -0.000456518697319552,
                0.00119280035141855
            ],
            "rotation": [
                -0.265483886003494,
                0.739030480384827,
                -0.511420905590057,
                -0.348999857902527
            ],
            "scale": [
                1.0,
                1.0,
                1.0
            ]
        },
        {
            "name": "vr_glove_left_slim",
            "translation": [
                0.0,
                0.0,
                0.0
            ],
            "rotation": [
                -6.12323426292584e-17,
                -3.74939939305299e-33,
                6.12323426292584e-17,
                1.0
            ],
            "scale": [
                100.0,
                100.0,
                100.0
            ],
            "mesh": 0,
            "skin": 0
        }
    ]
}