{
    "asset": {
        "generator": "FBX2glTF",
        "version": "2.0"
    },
    "scene": 0,
    "buffers": [
        {
            "byteLength": 751884,
            "uri": "buffer.bin"
        }
    ],
    "bufferViews": [
        {
            "buffer": 0,
            "byteLength": 29394,
            "byteOffset": 0,
            "target": 34963
        },
        {
            "buffer": 0,
            "byteLength": 120084,
            "byteOffset": 29396,
            "target": 34962
        },
        {
            "buffer": 0,
            "byteLength": 120084,
            "byteOffset": 149480,
            "target": 34962
        },
        {
            "buffer": 0,
            "byteLength": 160112,
            "byteOffset": 269564,
            "target": 34962
        },
        {
            "buffer": 0,
            "byteLength": 80056,
            "byteOffset": 429676,
            "target": 34962
        },
        {
            "buffer": 0,
            "byteLength": 80056,
            "byteOffset": 509732,
            "target": 34962
        },
        {
            "buffer": 0,
            "byteLength": 160112,
            "byteOffset": 589788,
            "target": 34962
        },
        {
            "buffer": 0,
            "byteLength": 1984,
            "byteOffset": 749900
        }
    ],
    "scenes": [
        {
            "name": "Root Scene",
            "nodes": [
                0
            ]
        }
    ],
    "accessors": [
        {
            "componentType": 5123,
            "type": "SCALAR",
            "count": 14697,
            "bufferView": 0,
            "byteOffset": 0
        },
        {
            "componentType": 5126,
            "type": "VEC3",
            "count": 10007,
            "bufferView": 1,
            "byteOffset": 0,
            "min": [
                -0.000225880139623769,
                -0.000530695891939104,
                -0.000276935083093122
            ],
            "max": [
                0.000553092919290066,
                0.000668601947836578,
                0.00175933830905706
            ]
        },
        {
            "componentType": 5126,
            "type": "VEC3",
            "count": 10007,
            "bufferView": 2,
            "byteOffset": 0
        },
        {
            "componentType": 5126,
            "type": "VEC4",
            "count": 10007,
            "bufferView": 3,
            "byteOffset": 0
        },
        {
            "componentType": 5126,
            "type": "VEC2",
            "count": 10007,
            "bufferView": 4,
            "byteOffset": 0
        },
        {
            "componentType": 5123,
            "type": "VEC4",
            "count": 10007,
            "bufferView": 5,
            "byteOffset": 0
        },
        {
            "componentType": 5126,
            "type": "VEC4",
            "count": 10007,
            "bufferView": 6,
            "byteOffset": 0
        },
        {
            "componentType": 5126,
            "type": "MAT4",
            "count": 31,
            "bufferView": 7,
            "byteOffset": 0
        }
    ],
    "images": [
        {
            "name": "vr_glove_normal.png",
            "uri": "vr_glove_normal.png"
        },
        {
            "name": "vr_glove_color_red.jpg",
            "uri": "vr_glove_color_red.jpg"
        }
    ],
    "samplers": [
        {}
    ],
    "textures": [
        {
            "name": "file2",
            "sampler": 0,
            "source": 0
        },
        {
            "name": "file3",
            "sampler": 0,
            "source": 1
        }
    ],
    "materials": [
        {
            "name": "blinn1",
            "alphaMode": "OPAQUE",
            "extras": {
                "fromFBX": {
                    "shadingModel": "Phong",
                    "isTruePBR": false
                }
            },
            "normalTexture": {
                "index": 0,
                "texCoord": 0
            },
            "pbrMetallicRoughness": {
                "baseColorTexture": {
                    "index": 1,
                    "texCoord": 0
                },
                "baseColorFactor": [
                    0.800000011920929,
                    0.800000011920929,
                    0.800000011920929,
                    1.0
                ],
                "metallicFactor": 0.400000005960464,
                "roughnessFactor": 0.490532398223877
            }
        }
    ],
    "meshes": [
        {
            "name": "vr_glove_right_slim",
            "primitives": [
                {
                    "material": 0,
                    "mode": 4,
                    "attributes": {
                        "JOINTS_0": 5,
                        "NORMAL": 2,
                        "POSITION": 1,
                        "TANGENT": 3,
                        "TEXCOORD_0": 4,
                        "WEIGHTS_0": 6
                    },
                    "indices": 0
                }
            ]
        }
    ],
    "skins": [
        {
            "joints": [
                1,
                2,
                3,
                4,
                5,
                6,
                7,
                8,
                9,
                10,
                11,
                12,
                13,
                14,
                15,
                16,
                17,
                18,
                19,
                20,
                21,
                22,
                23,
                24,
                25,
                26,
                27,
                28,
                29,
                30,
                31
            ],
            "inverseBindMatrices": 7,
            "skeleton": 1
        }
    ],
    "nodes": [
        {
            "name": "RootNode",
            "translation": [
                0.0,
                0.0,
                0.0
            ],
            "rotation": [
                0.0,
                0.0,
                0.0,
                1.0
            ],
            "scale": [
                1.0,
                1.0,
                1.0
            ],
            "children": [
                1,
                32
            ]
        },
        {
            "name": "Root",
            "translation": [
                0.0,
                0.0,
                0.0
            ],
            "rotation": [
                -6.12323426292584e-17,
                -3.74939939305299e-33,
                6.12323426292584e-17,
                1.0
            ],
            "scale": [
                100.0,
                100.0,
                100.0
            ],
            "children": [
                2,
                27,
                28,
                29,
                30,
                31
            ]
        },
        {
            "name": "wrist_r",
            "translation": [
                -1.5978732790245e-06,
                -3.19244975344191e-07,
                -6.25708662482793e-06
            ],
            "rotation": [
                -0.0,
                -0.0,
                -0.0,
                1.0
            ],
            "scale": [
                1.0,
                1.0,
                1.0
            ],
            "children": [
                3,
                7,
                12,
                17,
                22
            ]
        },
        {
            "name": "finger_thumb_0_r",
            "translation": [
                0.000179137874511071,
                0.000291781732812524,
                0.000252983998507261
            ],
            "rotation": [
                -0.276386797428131,
                0.773035764694214,
                -0.182029232382774,
                0.541194438934326
            ],
            "scale": [
                1.0,
                1.0,
                1.0
            ],
            "children": [
                4
            ]
        },
        {
            "name": "finger_thumb_1_r",
            "translation": [
                -0.000404059624997899,
                -5.15615494744992e-10,
                4.5447193230963e-10
            ],
            "rotation": [
                6.09803755651228e-05,
                -0.00137185282073915,
                0.246377468109131,
                0.969172954559326
            ],
            "scale": [
                1.0,
                1.0,
                1.0
            ],
            "children": [
                5
            ]
        },
        {
            "name": "finger_thumb_2_r",
            "translation": [
                -0.000325167929986492,
                -5.11375830569705e-10,
                -1.29331947928968e-10
            ],
            "rotation": [
                9.75727452896535e-05,
                0.00140282686334103,
                0.153335124254227,
                0.988173246383667
            ],
            "scale": [
                1.0,
                1.0,
                1.0
            ],
            "children": [
                6
            ]
        },
        {
            "name": "finger_thumb_r_end",
            "translation": [
                -0.000304639019304886,
                1.6269207092634e-09,
                7.92838961150011e-10
            ],
            "rotation": [
                6.93889390390723e-18,
                4.81482486096809e-35,
                6.93889390390723e-18,
                1.0
            ],
            "scale": [
                1.0,
                1.0,
                1.0
            ]
        },
        {
            "name": "finger_index_meta_r",
            "translation": [
                1.55722318595508e-05,
                0.000210732367122546,
                0.000147868631756864
            ],
            "rotation": [
                -0.550753116607666,
                0.539577722549438,
                0.351434201002121,
                0.53105640411377
            ],
            "scale": [
                1.0,
                1.0,
                1.0
            ],
            "children": [
                8
            ]
        },
        {
            "name": "finger_index_0_r",
            "translation": [
                -0.000737976050004363,
                -2.31618599300099e-10,
                -9.14778974792085e-10
            ],
            "rotation": [
                0.00162347115110606,
                -0.0528869554400444,
                0.241403847932816,
                0.968981146812439
            ],
            "scale": [
                1.0,
                1.0,
                1.0
            ],
            "children": [
                9
            ]
        },
        {
            "name": "finger_index_1_r",
            "translation": [
                -0.000432866771006957,
                4.35784630603564e-10,
                1.51548718019257e-09
            ],
            "rotation": [
                -8.5926367319189e-05,
                0.00504146795719862,
                0.184762090444565,
                0.982770323753357
            ],
            "scale": [
                1.0,
                1.0,
                1.0
            ],
            "children": [
                10
            ]
        },
        {
            "name": "finger_index_2_r",
            "translation": [
                -0.000282751920167357,
                -3.04805375384021e-10,
                -1.29848842789215e-09
            ],
            "rotation": [
                3.13613600155804e-05,
                -0.0011659226147458,
                0.0764576345682144,
                0.997072160243988
            ],
            "scale": [
                1.0,
                1.0,
                1.0
            ],
            "children": [
                11
            ]
        },
        {
            "name": "finger_index_r_end",
            "translation": [
                -0.000228213830268942,
                -1.43651546213874e-09,
                7.65161378701862e-10
            ],
            "rotation": [
                5.55111512312578e-17,
                1.38777878078145e-17,
                2.77555756156289e-17,
                1.0
            ],
            "scale": [
                1.0,
                1.0,
                1.0
            ]
        },
        {
            "name": "finger_middle_meta_r",
            "translation": [
                -2.17731339944294e-05,
                7.11954344296828e-05,
                0.000163187374710105
            ],
            "rotation": [
                -0.533423364162445,
                0.472987622022629,
                0.419737339019775,
                0.561749756336212
            ],
            "scale": [
                1.0,
                1.0,
                1.0
            ],
            "children": [
                13
            ]
        },
        {
            "name": "finger_middle_0_r",
            "translation": [
                -0.000708856037817895,
                1.09007047832677e-09,
                -3.08432793194591e-11
            ],
            "rotation": [
                -1.64037843168256e-16,
                -0.00018549247761257,
                0.229162603616714,
                0.973388135433197
            ],
            "scale": [
                1.0,
                1.0,
                1.0
            ],
            "children": [
                14
            ]
        },
        {
            "name": "finger_middle_1_r",
            "translation": [
                -0.000431084888987243,
                -1.29194999143323e-09,
                2.15619300192316e-10
            ],
            "rotation": [
                9.32806942728348e-05,
                -0.00368820875883102,
                0.157395571470261,
                0.987528741359711
            ],
            "scale": [
                1.0,
                1.0,
                1.0
            ],
            "children": [
                15
            ]
        },
        {
            "name": "finger_middle_2_r",
            "translation": [
                -0.000332659808918834,
                3.26560223307126e-10,
                -1.53607099262487e-10
            ],
            "rotation": [
                -0.000107397288957145,
                0.00412536365911365,
                0.141276553273201,
                0.989961564540863
            ],
            "scale": [
                1.0,
                1.0,
                1.0
            ],
            "children": [
                16
            ]
        },
        {
            "name": "finger_middle_r_end",
            "translation": [
                -0.000258923711953685,
                9.9841979128712e-10,
                -2.03529085945897e-11
            ],
            "rotation": [
                -8.67361737988404e-19,
                4.33680868994202e-18,
                -2.77555756156289e-17,
                1.0
            ],
            "scale": [
                1.0,
                1.0,
                1.0
            ]
        },
        {
            "name": "finger_ring_meta_r",
            "translation": [
                -5.13435543325613e-06,
                -6.54512259643525e-05,
                0.000163476928719319
            ],
            "rotation": [
                -0.516692221164703,
                0.429887890815735,
                0.495547860860825,
                0.550143480300903
            ],
            "scale": [
                1.0,
                1.0,
                1.0
            ],
            "children": [
                18
            ]
        },
        {
            "name": "finger_ring_0_r",
            "translation": [
                -0.000659748911857605,
                -9.74025651800936e-11,
                4.87942221349957e-11
            ],
            "rotation": [
                -0.000901304534636438,
                -0.0409569293260574,
                0.220369324088097,
                0.974555850028992
            ],
            "scale": [
                1.0,
                1.0,
                1.0
            ],
            "children": [
                19
            ]
        },
        {
            "name": "finger_ring_1_r",
            "translation": [
                -0.000403312034904957,
                -9.80847261050632e-12,
                -9.09677801835818e-12
            ],
            "rotation": [
                -7.31370819266886e-05,
                0.00253143906593323,
                0.133829861879349,
                0.991001069545746
            ],
            "scale": [
                1.0,
                1.0,
                1.0
            ],
            "children": [
                20
            ]
        },
        {
            "name": "finger_ring_2_r",
            "translation": [
                -0.000284887792076916,
                3.48773440683736e-11,
                7.33970328958833e-10
            ],
            "rotation": [
                0.000198658628505655,
                -0.00426306808367372,
                0.135354921221733,
                0.990787982940674
            ],
            "scale": [
                1.0,
                1.0,
                1.0
            ],
            "children": [
                21
            ]
        },
        {
            "name": "finger_ring_r_end",
            "translation": [
                -0.000224302348215133,
                1.08461273296001e-09,
                -1.74285613718794e-10
            ],
            "rotation": [
                -1.38777878078145e-17,
                7.70371977754894e-34,
                -5.55111512312578e-17,
                1.0
            ],
            "scale": [
                1.0,
                1.0,
                1.0
            ]
        },
        {
            "name": "finger_pinky_meta_r",
            "translation": [
                2.47815078182612e-05,
                -0.000189813683391549,
                0.000152135835378431
            ],
            "rotation": [
                -0.485757559537888,
                0.346746355295181,
                0.615016102790833,
                0.515326857566833
            ],
            "scale": [
                1.0,
                1.0,
                1.0
            ],
            "children": [
                23
            ]
        },
        {
            "name": "finger_pinky_0_r",
            "translation": [
                -0.000628556590527296,
                1.67358599201251e-10,
                -2.21745996564771e-10
            ],
            "rotation": [
                0.00394218927249312,
                0.0281640980392694,
                0.110307671129704,
                0.993490517139435
            ],
            "scale": [
                1.0,
                1.0,
                1.0
            ],
            "children": [
                24
            ]
        },
        {
            "name": "finger_pinky_1_r",
            "translation": [
                -0.00029874246683903,
                -3.98205690643749e-10,
                8.70832794763743e-10
            ],
            "rotation": [
                0.00038264412432909,
                -0.011456030420959,
                0.132522940635681,
                0.991113662719727
            ],
            "scale": [
                1.0,
                1.0,
                1.0
            ],
            "children": [
                25
            ]
        },
        {
            "name": "finger_pinky_2_r",
            "translation": [
                -0.000179786919034086,
                1.00860952922943e-09,
                -9.40107658387035e-10
            ],
            "rotation": [
                -0.000538476509973407,
                0.0127024594694376,
                0.108581051230431,
                0.994006276130676
            ],
            "scale": [
                1.0,
                1.0,
                1.0
            ],
            "children": [
                26
            ]
        },
        {
            "name": "finger_pinky_r_end",
            "translation": [
                -0.00018017939873971,
                -2.0001200695674e-10,
                6.59745924558308e-10
            ],
            "rotation": [
                0.0,
                -1.38777878078145e-17,
                0.0,
                1.0
            ],
            "scale": [
                1.0,
                1.0,
                1.0
            ]
        },
        {
            "name": "finger_thumb_r_aux",
            "translation": [
                0.000392808491596952,
                0.000600811617914587,
                0.000844917958602309
            ],
            "rotation": [
                0.0486143082380295,
                0.819588840007782,
                0.045037254691124,
                0.569106698036194
            ],
            "scale": [
                1.0,
                1.0,
                1.0
            ]
        },
        {
            "name": "finger_index_r_aux",
            "translation": [
                0.000182328119990416,
                0.000372783135389909,
                0.00148955651093274
            ],
            "rotation": [
                -0.209555432200432,
                0.708419322967529,
                0.597228050231934,
                0.31232550740242
            ],
            "scale": [
                1.0,
                1.0,
                1.0
            ]
        },
        {
            "name": "finger_middle_r_aux",
            "translation": [
                0.000125606849906035,
                7.87113312981091e-05,
                0.00154690199997276
            ],
            "rotation": [
                -0.221140787005424,
                0.677402794361115,
                0.647061228752136,
                0.271171391010284
            ],
            "scale": [
                1.0,
                1.0,
                1.0
            ]
        },
        {
            "name": "finger_ring_r_aux",
            "translation": [
                0.000178692265762947,
                -0.000232376929488964,
                0.00142235320527107
            ],
            "rotation": [
                -0.237414509057999,
                0.595027327537537,
                0.721628904342651,
                0.262351989746094
            ],
            "scale": [
                1.0,
                1.0,
                1.0
            ]
        },
        {
            "name": "finger_pinky_r_aux",
            "translation": [
                0.000160080351633951,
                -0.000456519221188501,
                0.00119280070066452
            ],
            "rotation": [
                -0.348999857902527,
                0.511420905590057,
                0.739030480384827,
                0.265483886003494
            ],
            "scale": [
                1.0,
                1.0,
                1.0
            ]
        },
        {
            "name": "vr_glove_right_slim",
            "translation": [
                0.0,
                0.0,
                0.0
            ],
            "rotation": [
                -6.12323426292584e-17,
                -3.74939939305299e-33,
                6.12323426292584e-17,
                1.0
            ],
            "scale": [
                100.0,
                100.0,
                100.0
            ],
            "mesh": 0,
            "skin": 0
        }
    ]
}