{
  "accessors": [
    {
      "name": "Cube.000_Cube.017-Mesh_0_positions",
      "componentType": 5126,
      "count": 690,
      "min": [
        0.6243159770965576,
        1.4196670055389404,
        0.054402001202106476
      ],
      "max": [
        0.8818349838256836,
        1.4683170318603516,
        0.19422300159931183
      ],
      "type": "VEC3",
      "bufferView": 0,
      "byteOffset": 0
    },
    {
      "name": "Cube.000_Cube.017-Mesh_0_normals",
      "componentType": 5126,
      "count": 690,
      "min": [
        -0.9834601879119873,
        -0.9993845224380493,
        -0.9979515075683594
      ],
      "max": [
        0.73670893907547,
        0.9996675252914429,
        0.9971991777420044
      ],
      "type": "VEC3",
      "bufferView": 1,
      "byteOffset": 0
    },
    {
      "name": "Cube.000_Cube.017-Mesh_0_texcoords",
      "componentType": 5126,
      "count": 690,
      "min": [
        0.01744999922811985,
        0.07758600264787674
      ],
      "max": [
        0.9935380220413208,
        1.0001050233840942
      ],
      "type": "VEC2",
      "bufferView": 2,
      "byteOffset": 0
    },
    {
      "name": "Cube.000_Cube.017-Mesh_0_indices",
      "componentType": 5123,
      "count": 3108,
      "min": [
        0
      ],
      "max": [
        689
      ],
      "type": "SCALAR",
      "bufferView": 3,
      "byteOffset": 0
    },
    {
      "name": "Cube.005_Cube.017-Mesh_0_positions",
      "componentType": 5126,
      "count": 690,
      "min": [
        -0.8803709745407104,
        1.4211570024490356,
        0.05584999918937683
      ],
      "max": [
        -0.6243320107460022,
        1.4668560028076172,
        0.19272799789905548
      ],
      "type": "VEC3",
      "bufferView": 0,
      "byteOffset": 8280
    },
    {
      "name": "Cube.005_Cube.017-Mesh_0_normals",
      "componentType": 5126,
      "count": 690,
      "min": [
        -0.9832893013954163,
        -0.9997279644012451,
        -0.9974941611289978
      ],
      "max": [
        0.655229389667511,
        0.9993812441825867,
        0.997296929359436
      ],
      "type": "VEC3",
      "bufferView": 1,
      "byteOffset": 8280
    },
    {
      "name": "Cube.005_Cube.017-Mesh_0_texcoords",
      "componentType": 5126,
      "count": 690,
      "min": [
        0.01744999922811985,
        0.07758600264787674
      ],
      "max": [
        0.9935380220413208,
        1.0001050233840942
      ],
      "type": "VEC2",
      "bufferView": 2,
      "byteOffset": 5520
    },
    {
      "name": "Cube.005_Cube.017-Mesh_0_indices",
      "componentType": 5123,
      "count": 3108,
      "min": [
        0
      ],
      "max": [
        689
      ],
      "type": "SCALAR",
      "bufferView": 3,
      "byteOffset": 6216
    }
  ],
  "asset": {
    "generator": "obj2gltf",
    "version": "2.0"
  },
  "buffers": [
    {
      "name": "Rigged_Hand",
      "byteLength": 56592,
      "uri": "data:application/octet-stream;base64,"
    }
  ],
  "bufferViews": [
    {
      "name": "bufferView_0",
      "buffer": 0,
      "byteLength": 16560,
      "byteOffset": 0,
      "byteStride": 12,
      "target": 34962
    },
    {
      "name": "bufferView_1",
      "buffer": 0,
      "byteLength": 16560,
      "byteOffset": 16560,
      "byteStride": 12,
      "target": 34962
    },
    {
      "name": "bufferView_2",
      "buffer": 0,
      "byteLength": 11040,
      "byteOffset": 33120,
      "byteStride": 8,
      "target": 34962
    },
    {
      "name": "bufferView_3",
      "buffer": 0,
      "byteLength": 12432,
      "byteOffset": 44160,
      "target": 34963
    }
  ],
  "materials": [
    {
      "name": "Material.004",
      "pbrMetallicRoughness": {
        "baseColorFactor": [
          0.5,
          0.5,
          0.5,
          1
        ],
        "metallicFactor": 0,
        "roughnessFactor": 1
      },
      "emissiveFactor": [
        0,
        0,
        0
      ],
      "alphaMode": "OPAQUE",
      "doubleSided": false
    }
  ],
  "meshes": [
    {
      "name": "Cube.000_Cube.017-Mesh",
      "primitives": [
        {
          "attributes": {
            "POSITION": 0,
            "NORMAL": 1,
            "TEXCOORD_0": 2
          },
          "indices": 3,
          "material": 0,
          "mode": 4
        }
      ]
    },
    {
      "name": "Cube.005_Cube.017-Mesh",
      "primitives": [
        {
          "attributes": {
            "POSITION": 4,
            "NORMAL": 5,
            "TEXCOORD_0": 6
          },
          "indices": 7,
          "material": 0,
          "mode": 4
        }
      ]
    }
  ],
  "nodes": [
    {
      "name": "Cube.000_Cube.017",
      "mesh": 0
    },
    {
      "name": "Cube.005_Cube.017",
      "mesh": 1
    }
  ],
  "scene": 0,
  "scenes": [
    {
      "nodes": [
        0,
        1
      ]
    }
  ]
}
